<svg xmlns="http://www.w3.org/2000/svg" viewBox="0 0 2666.667 499.921" aria-label="CTTD">
  <defs>
    <symbol id="c" viewBox="0 0 488 509">
      <path d="M32 122c21-38 51-69 89-90S203 0 252 0c59 0 109 16 152 46 43 32 71 75 84 128H355c-10-20-24-36-43-48-17-10-39-16-61-16-39 0-68 14-92 40-23 26-35 60-35 104s12 79 35 106c24 25 53 38 92 38a108 108 0 0 0 105-64h132c-13 55-41 98-84 128s-93 47-152 47c-49 0-92-11-131-32-38-23-68-52-89-91S0 304 0 254s11-93 32-132" />
    </symbol>
    <symbol id="t" viewBox="0 0 433 435">
      <path d="M433 267H268v168H164V267H0v-99h164V0h104v168h165z" />
    </symbol>
    <symbol id="d" viewBox="0 0 449 500">
      <path d="M287 357c25-25 38-61 38-106 0-47-13-83-38-108s-62-39-108-39h-58v291h58c46 0 82-12 108-38m38-325c39 21 70 51 91 88 23 37 33 81 33 131s-10 92-33 130c-21 38-52 67-91 88-40 22-86 31-138 31H0V0h187c53 0 98 11 138 32" />
    </symbol>
    <symbol id="basic" viewBox="0 0 2666.667 499.921">
      <use href="#c" x="0" y="0" width="479.608" height="499.921" />
      <use href="#t" x="781.050" y="38.818" width="425.809" height="425.784" />
      <use href="#t" x="1484.900" y="38.818" width="425.809" height="425.784" />
      <use href="#d" x="2225.465" y="5.604" width="441.201" height="490.817" />
    </symbol>
    <symbol id="emblem" viewBox="0 0 1333 1309">
      <use href="#c" x="0" y="0" width="488" height="509" />
      <use href="#t" x="892" y="38" width="433" height="435" />
      <use href="#t" x="28" y="842" width="433" height="435" />
      <use href="#d" x="884" y="809" width="449" height="500" />
    </symbol>
  </defs>
  <use href="#basic" />
</svg>
